<svg xmlns="http://www.w3.org/2000/svg" width="153" height="48" fill="none"><rect width="153" height="48" fill="#fff" fill-opacity=".16" rx="16"/><rect width="40" height="40" x="4" y="4" fill="#fff" fill-opacity=".16" rx="12"/><path fill="#fff" fill-rule="evenodd" d="m16.112 12.252-.816 9.136a29.794 29.794 0 0 1 2.875-.495c4.713-.579 9.049 0 11.986 1.374 1.43-1.373 2.174-2.904 1.986-4.43-.505-4.11-7.579-6.623-15.8-5.614l-.23.03ZM14.765 27.33 14 35.892a28.29 28.29 0 0 0 6-.115c8.22-1.01 14.476-5.16 13.971-9.27-.215-1.754-1.627-3.217-3.813-4.24-2.423 2.328-6.816 4.205-11.987 4.84a29.57 29.57 0 0 1-3.406.223ZM95.295 30c-1.397 0-2.642-.25-3.736-.751-1.094-.501-1.958-1.206-2.59-2.116-.633-.909-.95-1.97-.95-3.182 0-1.187.304-2.228.91-3.124.62-.896 1.457-1.588 2.511-2.076 1.067-.5 2.26-.751 3.578-.751 1.384 0 2.564.29 3.539.87.975.567 1.72 1.377 2.234 2.431.371.743.612 1.578.722 2.504.032-1.114.335-2.094.906-2.938.606-.897 1.45-1.595 2.531-2.096 1.093-.514 2.345-.771 3.756-.771 1.291 0 2.451.218 3.479.652 1.041.435 1.885 1.042 2.531 1.82.191.23.359.473.504.729a.949.949 0 0 1-.109-.444v-1.46c0-.531.43-.96.96-.96h10.95c.53 0 .96.429.96.96v1.46c0 .53-.43.96-.96.96h-3.212v6.987a.96.96 0 0 1-.96.96h-2.607a.96.96 0 0 1-.96-.96v-6.987h-3.211a.958.958 0 0 1-.826-.471c.24.437.411.909.514 1.416.06.296-.178.557-.48.557h-3.584a.468.468 0 0 1-.431-.328 2.065 2.065 0 0 0-.819-1.075c-.474-.33-1.054-.495-1.739-.495-.528 0-.989.106-1.384.317-.396.197-.699.5-.91.909-.21.395-.316.883-.316 1.463 0 .58.106 1.067.316 1.463.211.395.514.698.91.91.395.197.856.296 1.384.296.685 0 1.265-.172 1.739-.514.382-.287.653-.642.813-1.065a.472.472 0 0 1 .43-.32h3.59c.302 0 .54.263.48.558a5.014 5.014 0 0 1-1.042 2.19c-.646.778-1.49 1.385-2.531 1.82-1.028.434-2.188.652-3.479.652-1.411 0-2.663-.25-3.756-.751-1.081-.501-1.925-1.206-2.531-2.116-.562-.842-.863-1.798-.904-2.866-.096.433-.502.751-.977.751h-7.873c.06.154.133.3.218.435.303.461.758.817 1.364 1.068.606.237 1.358.355 2.254.355.857 0 1.694-.112 2.51-.336a8.326 8.326 0 0 0 1.899-.765c.165-.092.375.024.375.213v1.691a.952.952 0 0 1-.433.814 9.518 9.518 0 0 1-2.354 1.052 11.537 11.537 0 0 1-3.203.455Zm-2.55-7.69c-.07.15-.129.309-.174.474h4.926a2.816 2.816 0 0 0-.284-.652c-.211-.382-.501-.672-.87-.87-.356-.198-.784-.297-1.285-.297-.554 0-1.028.119-1.424.356a2.398 2.398 0 0 0-.89.989Zm37.987 6.939c1.094.5 2.34.751 3.737.751a11.53 11.53 0 0 0 3.202-.455 9.51 9.51 0 0 0 2.355-1.052.952.952 0 0 0 .433-.814v-1.69c0-.19-.21-.306-.375-.214a8.326 8.326 0 0 1-1.899.765 9.452 9.452 0 0 1-2.51.336c-.897 0-1.648-.118-2.254-.355-.606-.25-1.061-.607-1.364-1.068a2.67 2.67 0 0 1-.219-.435h7.873c.577 0 1.051-.469.994-1.042-.099-.995-.346-1.886-.74-2.674-.514-1.055-1.259-1.865-2.234-2.432-.976-.58-2.155-.87-3.539-.87-1.318 0-2.511.25-3.578.751-1.055.488-1.892 1.18-2.511 2.076-.606.896-.909 1.937-.909 3.124 0 1.212.316 2.273.949 3.182.632.91 1.495 1.615 2.589 2.116Zm1.013-6.465a2.88 2.88 0 0 1 .174-.474c.21-.422.507-.752.889-.989.396-.237.87-.356 1.424-.356.5 0 .929.1 1.285.297.369.198.659.488.869.87.116.19.211.408.285.652h-4.926Zm-61.368 6.88a.96.96 0 0 1-.96-.96v-9.408c0-.53.43-.96.96-.96h5.18a.96.96 0 0 1 .906.643l2.28 6.503 2.234-6.498a.96.96 0 0 1 .907-.648h5.176c.53 0 .96.43.96.96v9.408c0 .53-.43.96-.96.96h-2.33a.96.96 0 0 1-.96-.96v-6.876L81 29.048a.96.96 0 0 1-.895.616H77.35a.96.96 0 0 1-.896-.615l-2.788-7.24v6.895c0 .53-.43.96-.96.96h-2.33Zm-14.087-.96c0 .53.43.96.96.96h8.114c1.226 0 2.208-.29 2.946-.87.738-.593 1.107-1.384 1.107-2.372 0-.91-.356-1.621-1.068-2.135-.423-.306-.962-.533-1.615-.68.276-.127.524-.276.743-.447.672-.514 1.008-1.18 1.008-1.997 0-.87-.33-1.555-.989-2.056-.658-.514-1.535-.77-2.629-.77H57.25a.96.96 0 0 0-.96.96v9.407Zm4.29-1.788h3.203c.355 0 .626-.08.81-.237.185-.172.277-.402.277-.692 0-.29-.099-.52-.297-.692-.197-.171-.494-.257-.89-.257H60.58v1.878Zm0-4.112h2.61c.329 0 .58-.08.75-.237.172-.158.258-.37.258-.633 0-.264-.086-.468-.257-.613-.158-.158-.396-.237-.712-.237H60.58v1.72Z" clip-rule="evenodd"/></svg>