<svg width="153" height="48" viewBox="0 0 153 48" fill="none" xmlns="http://www.w3.org/2000/svg">
<rect width="153" height="48" rx="16" fill="#0060FF"/>
<rect x="4" y="4" width="40" height="40" rx="12" fill="#2476FF"/>
<path fill-rule="evenodd" clip-rule="evenodd" d="M16.1124 12.2521L15.2959 21.3881C16.2201 21.1812 17.1812 21.0142 18.1707 20.8927C22.8838 20.3141 27.2197 20.8933 30.1572 22.2673C31.5869 20.8936 32.3305 19.3628 32.1432 17.8375C31.6385 13.7273 24.5645 11.2136 16.343 12.2229C16.266 12.2324 16.1891 12.2421 16.1124 12.2521ZM14.7653 27.3295L14 35.8918C15.8638 36.063 17.8938 36.0356 19.9991 35.7771C28.2206 34.7678 34.4762 30.6176 33.9715 26.5074C33.7561 24.7534 32.3444 23.2902 30.1577 22.2673C27.7349 24.5954 23.3419 26.4724 18.1714 27.1072C17.0079 27.2501 15.8674 27.3223 14.7653 27.3295Z" fill="white"/>
<path fill-rule="evenodd" clip-rule="evenodd" d="M95.295 30C93.898 30 92.6525 29.7496 91.5586 29.2488C90.4647 28.7479 89.6014 28.0428 88.9688 27.1334C88.3362 26.2241 88.0199 25.1631 88.0199 23.9506C88.0199 22.7644 88.323 21.7232 88.9293 20.827C89.5487 19.9308 90.3856 19.2389 91.44 18.7512C92.5075 18.2504 93.7003 18 95.0182 18C96.4021 18 97.5816 18.29 98.5569 18.8699C99.5322 19.4366 100.277 20.2471 100.791 21.3015C101.162 22.0444 101.403 22.8788 101.513 23.8049C101.545 22.6908 101.848 21.7113 102.419 20.8666C103.025 19.9703 103.869 19.2718 104.95 18.771C106.043 18.257 107.295 18 108.706 18C109.997 18 111.157 18.2175 112.185 18.6524C113.226 19.0873 114.07 19.6936 114.716 20.4712C114.907 20.7021 115.075 20.9453 115.22 21.2007C115.15 21.0679 115.111 20.9169 115.111 20.7567V19.2961C115.111 18.7659 115.541 18.3361 116.071 18.3361H127.021C127.551 18.3361 127.981 18.7659 127.981 19.2961V20.7567C127.981 21.2869 127.551 21.7167 127.021 21.7167H123.809V28.7039C123.809 29.2341 123.38 29.6639 122.849 29.6639H120.242C119.712 29.6639 119.282 29.2341 119.282 28.7039V21.7167H116.071C115.719 21.7167 115.412 21.5277 115.245 21.2457C115.485 21.6825 115.656 22.1546 115.759 22.662C115.819 22.9577 115.581 23.2191 115.279 23.2191H111.695C111.497 23.2191 111.329 23.0789 111.264 22.8915C111.105 22.4321 110.832 22.0734 110.445 21.8155C109.971 21.486 109.391 21.3213 108.706 21.3213C108.178 21.3213 107.717 21.4267 107.322 21.6376C106.926 21.8353 106.623 22.1384 106.412 22.547C106.202 22.9423 106.096 23.43 106.096 24.0099C106.096 24.5898 106.202 25.0774 106.412 25.4728C106.623 25.8682 106.926 26.1713 107.322 26.3822C107.717 26.5799 108.178 26.6787 108.706 26.6787C109.391 26.6787 109.971 26.5074 110.445 26.1647C110.827 25.8782 111.098 25.5232 111.258 25.0999C111.327 24.9172 111.493 24.7809 111.688 24.7809H115.278C115.58 24.7809 115.818 25.0427 115.758 25.3385C115.591 26.1523 115.243 26.8824 114.716 27.5288C114.07 28.3064 113.226 28.9127 112.185 29.3476C111.157 29.7825 109.997 30 108.706 30C107.295 30 106.043 29.7496 104.95 29.2488C103.869 28.7479 103.025 28.0428 102.419 27.1334C101.857 26.291 101.556 25.3354 101.515 24.2667C101.419 24.6998 101.013 25.0181 100.538 25.0181H92.6647C92.7249 25.1722 92.7977 25.3172 92.8831 25.453C93.1863 25.9143 93.641 26.2702 94.2472 26.5206C94.8535 26.7578 95.6047 26.8764 96.5009 26.8764C97.3576 26.8764 98.1945 26.7644 99.0116 26.5404C99.6933 26.3564 100.326 26.1014 100.91 25.7753C101.075 25.683 101.285 25.7992 101.285 25.9885V27.6791C101.285 28.0068 101.13 28.3181 100.852 28.4927C100.153 28.9334 99.3679 29.2842 98.4976 29.5453C97.4433 29.8484 96.3757 30 95.295 30ZM92.7447 22.3097C92.6742 22.4603 92.6162 22.6185 92.5708 22.7842H97.4969C97.4234 22.5402 97.3286 22.3228 97.2126 22.1318C97.0017 21.7496 96.7118 21.4596 96.3428 21.2619C95.9869 21.0643 95.5586 20.9654 95.0578 20.9654C94.5042 20.9654 94.0298 21.084 93.6344 21.3213C93.2522 21.5585 92.9556 21.888 92.7447 22.3097ZM130.732 29.2488C131.826 29.7496 133.072 30 134.469 30C135.55 30 136.617 29.8484 137.671 29.5453C138.542 29.2842 139.327 28.9334 140.026 28.4927C140.304 28.3181 140.459 28.0068 140.459 27.6791V25.9885C140.459 25.7992 140.249 25.683 140.084 25.7753C139.5 26.1014 138.867 26.3564 138.185 26.5404C137.368 26.7644 136.531 26.8764 135.675 26.8764C134.778 26.8764 134.027 26.7578 133.421 26.5206C132.815 26.2702 132.36 25.9143 132.057 25.453C131.972 25.3172 131.899 25.1722 131.838 25.0181H139.711C140.288 25.0181 140.762 24.5495 140.705 23.9757C140.606 22.9812 140.359 22.0898 139.965 21.3015C139.451 20.2471 138.706 19.4366 137.731 18.8699C136.755 18.29 135.576 18 134.192 18C132.874 18 131.681 18.2504 130.614 18.7512C129.559 19.2389 128.722 19.9308 128.103 20.827C127.497 21.7232 127.194 22.7644 127.194 23.9506C127.194 25.1631 127.51 26.2241 128.143 27.1334C128.775 28.0428 129.638 28.7479 130.732 29.2488ZM131.745 22.7842C131.79 22.6185 131.848 22.4603 131.919 22.3097C132.129 21.888 132.426 21.5585 132.808 21.3213C133.204 21.084 133.678 20.9654 134.232 20.9654C134.732 20.9654 135.161 21.0643 135.517 21.2619C135.886 21.4596 136.176 21.7496 136.386 22.1318C136.502 22.3228 136.597 22.5402 136.671 22.7842H131.745ZM70.3769 29.6639C69.8467 29.6639 69.4169 29.2341 69.4169 28.7039V19.2961C69.4169 18.7659 69.8467 18.3361 70.3769 18.3361H75.5566C75.9644 18.3361 76.3276 18.5937 76.4625 18.9785L78.7425 25.4822L80.9767 18.984C81.11 18.5964 81.4746 18.3361 81.8845 18.3361H87.0599C87.5901 18.3361 88.0199 18.7659 88.0199 19.2961V28.7039C88.0199 29.2341 87.5901 29.6639 87.0599 29.6639H84.7295C84.1993 29.6639 83.7695 29.2341 83.7695 28.7039V21.8285L81.0008 29.0477C80.8585 29.4189 80.5021 29.6639 80.1045 29.6639H77.3511C76.954 29.6639 76.5979 29.4195 76.4552 29.0489L73.6673 21.8095V28.7039C73.6673 29.2341 73.2375 29.6639 72.7073 29.6639H70.3769ZM56.29 28.7039C56.29 29.2341 56.7198 29.6639 57.25 29.6639H65.3642C66.5899 29.6639 67.5718 29.374 68.3098 28.7941C69.0479 28.201 69.4169 27.4102 69.4169 26.4218C69.4169 25.5124 69.061 24.8007 68.3493 24.2867C67.9256 23.9806 67.3873 23.754 66.7345 23.6068C67.0103 23.4797 67.2577 23.3307 67.4767 23.1598C68.1489 22.6458 68.485 21.9803 68.485 21.1631C68.485 20.2933 68.1555 19.6079 67.4965 19.1071C66.8375 18.5931 65.9611 18.3361 64.8672 18.3361H57.25C56.7198 18.3361 56.29 18.7659 56.29 19.2961V28.7039ZM60.58 26.916H63.7826C64.1385 26.916 64.4087 26.8369 64.5932 26.6788C64.7777 26.5074 64.8699 26.2768 64.8699 25.9868C64.8699 25.6969 64.7711 25.4663 64.5734 25.2949C64.3757 25.1236 64.0792 25.0379 63.6838 25.0379H60.58V26.916ZM60.58 22.804H63.1895C63.519 22.804 63.7694 22.7249 63.9408 22.5668C64.1121 22.4086 64.1978 22.1977 64.1978 21.9341C64.1978 21.6705 64.1121 21.4663 63.9408 21.3213C63.7826 21.1631 63.5454 21.084 63.2291 21.084H60.58V22.804Z" fill="white"/>
</svg>
