<svg width="85" height="12" viewBox="0 0 85 12" fill="none" xmlns="http://www.w3.org/2000/svg">
<path fill-rule="evenodd" clip-rule="evenodd" d="M39.295 12C37.898 12 36.6525 11.7496 35.5586 11.2488C34.4647 10.7479 33.6014 10.0428 32.9688 9.13344C32.3362 8.22405 32.0199 7.1631 32.0199 5.95058C32.0199 4.76442 32.323 3.72323 32.9293 2.82702C33.5487 1.93081 34.3856 1.23888 35.44 0.751235C36.5075 0.250412 37.7003 0 39.0182 0C40.4021 0 41.5816 0.289951 42.5569 0.869852C43.5322 1.43657 44.2769 2.24712 44.7909 3.30148C45.1623 4.04435 45.4029 4.87881 45.5126 5.80487C45.5454 4.69077 45.8476 3.71133 46.419 2.86656C47.0253 1.97035 47.8688 1.27183 48.9495 0.771006C50.0434 0.257002 51.2955 0 52.7057 0C53.9973 0 55.1571 0.217463 56.1851 0.652389C57.2263 1.08731 58.0698 1.69357 58.7156 2.47117C58.9074 2.70214 59.0754 2.94531 59.2195 3.2007C59.1501 3.06791 59.1109 2.91688 59.1109 2.75667V1.29611C59.1109 0.765915 59.5407 0.336108 60.0709 0.336108H71.0207C71.5509 0.336108 71.9807 0.765915 71.9807 1.29611V2.75667C71.9807 3.28686 71.5509 3.71667 71.0207 3.71667H67.8094V10.7039C67.8094 11.2341 67.3796 11.6639 66.8494 11.6639H64.2422C63.712 11.6639 63.2822 11.2341 63.2822 10.7039V3.71667H60.0709C59.7193 3.71667 59.4119 3.52767 59.2446 3.24573C59.485 3.6825 59.6565 4.15457 59.759 4.66196C59.8187 4.95772 59.5806 5.21911 59.2789 5.21911H55.6948C55.4965 5.21911 55.3291 5.0789 55.2643 4.89153C55.1052 4.43208 54.8323 4.0734 54.4454 3.81549C53.9709 3.486 53.391 3.32125 52.7057 3.32125C52.1785 3.32125 51.7172 3.42669 51.3218 3.63756C50.9264 3.83526 50.6233 4.13839 50.4124 4.54695C50.2016 4.94234 50.0961 5.42998 50.0961 6.00988C50.0961 6.58979 50.2016 7.07743 50.4124 7.47282C50.6233 7.8682 50.9264 8.17133 51.3218 8.38221C51.7172 8.5799 52.1785 8.67875 52.7057 8.67875C53.391 8.67875 53.9709 8.50741 54.4454 8.16474C54.8275 7.87818 55.0984 7.52325 55.2583 7.09994C55.3273 6.91722 55.493 6.78089 55.6883 6.78089H59.2782C59.5801 6.78089 59.8183 7.0427 59.7577 7.33853C59.5909 8.1523 59.2435 8.8824 58.7156 9.52883C58.0698 10.3064 57.2263 10.9127 56.1851 11.3476C55.1571 11.7825 53.9973 12 52.7057 12C51.2955 12 50.0434 11.7496 48.9495 11.2488C47.8688 10.7479 47.0253 10.0428 46.419 9.13344C45.8574 8.29097 45.5559 7.33538 45.5146 6.26668C45.4186 6.69979 45.0128 7.01812 44.5377 7.01812H36.6647C36.7249 7.17224 36.7977 7.31721 36.8831 7.45305C37.1863 7.91433 37.641 8.27018 38.2472 8.52059C38.8535 8.75783 39.6047 8.87644 40.5009 8.87644C41.3576 8.87644 42.1945 8.76442 43.0116 8.54036C43.6933 8.35641 44.3262 8.1014 44.9101 7.77531C45.0754 7.68304 45.2851 7.7992 45.2851 7.98845V9.67907C45.2851 10.0068 45.1298 10.3181 44.8525 10.4927C44.1528 10.9334 43.3679 11.2842 42.4976 11.5453C41.4433 11.8484 40.3757 12 39.295 12ZM36.7447 4.30972C36.6742 4.46031 36.6162 4.61847 36.5708 4.78418H41.4969C41.4234 4.54025 41.3286 4.32278 41.2126 4.1318C41.0017 3.74959 40.7118 3.45964 40.3428 3.26194C39.9869 3.06425 39.5586 2.9654 39.0578 2.9654C38.5042 2.9654 38.0298 3.08402 37.6344 3.32125C37.2522 3.55848 36.9556 3.88797 36.7447 4.30972ZM74.7324 11.2488C75.8263 11.7496 77.0717 12 78.4688 12C79.5495 12 80.6171 11.8484 81.6714 11.5453C82.5417 11.2842 83.3266 10.9334 84.0263 10.4927C84.3036 10.3181 84.4589 10.0068 84.4589 9.67907V7.98845C84.4589 7.7992 84.2491 7.68304 84.0839 7.77531C83.4999 8.1014 82.8671 8.35641 82.1854 8.54036C81.3683 8.76442 80.5314 8.87644 79.6747 8.87644C78.7785 8.87644 78.0273 8.75783 77.421 8.52059C76.8147 8.27018 76.36 7.91433 76.0569 7.45305C75.9715 7.31721 75.8987 7.17224 75.8385 7.01812H83.7114C84.288 7.01812 84.7625 6.54945 84.7051 5.97573C84.6056 4.98118 84.3588 4.08976 83.9647 3.30148C83.4507 2.24712 82.706 1.43657 81.7307 0.869852C80.7554 0.289951 79.5759 0 78.192 0C76.874 0 75.6813 0.250412 74.6138 0.751235C73.5594 1.23888 72.7225 1.93081 72.103 2.82702C71.4968 3.72323 71.1937 4.76442 71.1937 5.95058C71.1937 7.1631 71.51 8.22405 72.1426 9.13344C72.7752 10.0428 73.6385 10.7479 74.7324 11.2488ZM75.7446 4.78418C75.79 4.61847 75.8479 4.46031 75.9185 4.30972C76.1294 3.88797 76.4259 3.55848 76.8082 3.32125C77.2035 3.08402 77.678 2.9654 78.2316 2.9654C78.7324 2.9654 79.1607 3.06425 79.5166 3.26194C79.8856 3.45964 80.1755 3.74959 80.3864 4.1318C80.5024 4.32278 80.5971 4.54025 80.6707 4.78418H75.7446ZM14.3769 11.6639C13.8467 11.6639 13.4169 11.2341 13.4169 10.7039V1.29611C13.4169 0.765915 13.8467 0.336108 14.3769 0.336108H19.5566C19.9644 0.336108 20.3276 0.593709 20.4625 0.978518L22.7425 7.48219L24.9767 0.983976C25.11 0.596355 25.4746 0.336108 25.8845 0.336108H31.0599C31.5901 0.336108 32.0199 0.765915 32.0199 1.29611V10.7039C32.0199 11.2341 31.5901 11.6639 31.0599 11.6639H28.7295C28.1993 11.6639 27.7695 11.2341 27.7695 10.7039V3.82848L25.0008 11.0477C24.8585 11.4189 24.5021 11.6639 24.1045 11.6639H21.3511C20.954 11.6639 20.5979 11.4195 20.4552 11.0489L17.6673 3.80946V10.7039C17.6673 11.2341 17.2375 11.6639 16.7073 11.6639H14.3769ZM0.290039 10.7039C0.290039 11.2341 0.719844 11.6639 1.25004 11.6639H9.36418C10.5899 11.6639 11.5718 11.374 12.3098 10.7941C13.0479 10.201 13.4169 9.41024 13.4169 8.42178C13.4169 7.51239 13.061 6.80069 12.3493 6.28668C11.9256 5.98062 11.3873 5.75399 10.7345 5.60681C11.0103 5.47965 11.2577 5.33066 11.4767 5.15983C12.1489 4.64583 12.485 3.98026 12.485 3.16313C12.485 2.29327 12.1555 1.60794 11.4965 1.10711C10.8375 0.59311 9.96108 0.336108 8.86717 0.336108H1.25004C0.719846 0.336108 0.290039 0.765915 0.290039 1.29611V10.7039ZM4.57999 8.91601H7.78263C8.13848 8.91601 8.40866 8.83693 8.59317 8.67878C8.77768 8.50744 8.86994 8.2768 8.86994 7.98685C8.86994 7.6969 8.77109 7.46626 8.5734 7.29492C8.37571 7.12359 8.07917 7.03792 7.68378 7.03792H4.57999V8.91601ZM4.57999 4.80398H7.18955C7.51904 4.80398 7.76945 4.72491 7.94078 4.56675C8.11212 4.4086 8.19778 4.19772 8.19778 3.93413C8.19778 3.67054 8.11212 3.46626 7.94078 3.32128C7.78263 3.16313 7.54539 3.08405 7.22908 3.08405H4.57999V4.80398Z" fill="white"/>
</svg>
