<svg width="40" height="40" viewBox="0 0 40 40" fill="none" xmlns="http://www.w3.org/2000/svg">
<rect width="40" height="40" rx="12" fill="white" fill-opacity="0.16"/>
<path fill-rule="evenodd" clip-rule="evenodd" d="M12.1124 8.2521L11.2959 17.3881C12.2201 17.1812 13.1812 17.0142 14.1707 16.8927C18.8838 16.3141 23.2197 16.8933 26.1572 18.2673C27.5869 16.8936 28.3305 15.3628 28.1432 13.8375C27.6385 9.7273 20.5645 7.21356 12.343 8.2229C12.266 8.23236 12.1891 8.24209 12.1124 8.2521ZM10.7653 23.3295L10 31.8918C11.8638 32.063 13.8938 32.0356 15.9991 31.7771C24.2206 30.7678 30.4762 26.6176 29.9715 22.5074C29.7561 20.7534 28.3444 19.2902 26.1577 18.2673C23.7349 20.5954 19.3419 22.4724 14.1714 23.1072C13.0079 23.2501 11.8674 23.3223 10.7653 23.3295Z" fill="white"/>
</svg>
