<svg width="73" height="72" viewBox="0 0 73 72" fill="none" xmlns="http://www.w3.org/2000/svg">
<rect x="0.5" width="72" height="72" rx="16" fill="#2476FF" fill-opacity="0.08"/>
<path d="M44.8543 51.3754C44.8543 47.7184 42.3915 43.3262 35.6113 42.1216" stroke="#2476FF" stroke-width="3" stroke-linecap="round" stroke-linejoin="round"/>
<path fill-rule="evenodd" clip-rule="evenodd" d="M40.1202 27.3023C40.1202 31.9276 36.371 35.6768 31.7456 35.6768C27.1222 35.6768 23.373 31.9276 23.373 27.3023C23.373 22.6769 27.1222 18.9277 31.7456 18.9277C36.371 18.9277 40.1202 22.6769 40.1202 27.3023Z" stroke="#2476FF" stroke-width="3" stroke-linecap="round" stroke-linejoin="round"/>
<path d="M47.3271 41.145C52.8229 42.2732 54.4997 46.2512 54.4997 49.3044" stroke="#2476FF" stroke-width="3" stroke-linecap="round" stroke-linejoin="round"/>
<path d="M45.4678 22.3135C48.2942 22.9028 50.4112 25.4113 50.4014 28.4102C50.3918 31.0641 48.7188 33.3244 46.3692 34.2026" stroke="#2476FF" stroke-width="3" stroke-linecap="round" stroke-linejoin="round"/>
<path d="M23.4709 50.6937L23.2774 50.1703C22.5481 48.1961 20.9939 46.6397 19.0227 45.9093L18.5 45.7155L19.0227 45.5219C20.9939 44.7913 22.5481 43.2349 23.2774 41.2609L23.4709 40.7373L23.6644 41.2609C24.3937 43.2349 25.9479 44.7913 27.9191 45.5219L28.4419 45.7155L27.9191 45.9093C25.9479 46.6397 24.3937 48.1961 23.6644 50.1703L23.4709 50.6937Z" stroke="#2476FF" stroke-width="3" stroke-linecap="round" stroke-linejoin="round"/>
<path d="M33.6412 53.0724C33.3124 51.991 32.4674 51.1446 31.3877 50.8154C32.4674 50.4864 33.3124 49.64 33.6412 48.5586C33.9698 49.64 34.8148 50.4864 35.8946 50.8154C34.8148 51.1446 33.9698 51.991 33.6412 53.0724Z" stroke="#2476FF" stroke-width="3" stroke-linecap="round" stroke-linejoin="round"/>
</svg>
