<svg width="73" height="72" viewBox="0 0 73 72" fill="none" xmlns="http://www.w3.org/2000/svg">
<rect x="0.5" width="72" height="72" rx="16" fill="#01B9FF" fill-opacity="0.08"/>
<path d="M41.8872 30.6788C41.9052 30.364 41.923 30.0472 41.923 29.7145C41.923 23.2768 36.7128 18.0664 30.275 18.0664C23.8552 18.0664 18.6289 23.2768 18.6289 29.7145C18.6289 36.1342 23.8552 41.3606 30.275 41.3606C30.6097 41.3606 30.9245 41.3426 31.2393 41.3266" stroke="#01B9FF" stroke-width="3" stroke-linecap="round" stroke-linejoin="round"/>
<path fill-rule="evenodd" clip-rule="evenodd" d="M54.4992 42.2886C54.4992 35.8568 49.2868 30.6445 42.855 30.6445C36.4252 30.6445 31.2109 35.8568 31.2109 42.2886C31.2109 48.7204 36.4252 53.9328 42.855 53.9328C49.2868 53.9328 54.4992 48.7204 54.4992 42.2886Z" stroke="#01B9FF" stroke-width="3" stroke-linecap="round" stroke-linejoin="round"/>
<path d="M18.5 44.7266C19.3309 48.7096 22.216 52.023 26.1073 53.36" stroke="#01B9FF" stroke-width="3" stroke-linecap="round" stroke-linejoin="round"/>
<path d="M54.0603 26.9381C53.2295 22.9552 50.3443 19.6416 46.4531 18.3047" stroke="#01B9FF" stroke-width="3" stroke-linecap="round" stroke-linejoin="round"/>
</svg>
